<svg width="1279" height="44" viewBox="0 0 1279 44" fill="none" xmlns="http://www.w3.org/2000/svg">
<path d="M583.43 35.4828C585.49 35.4755 587.891 36.0784 589.346 34.3244C589.576 34.0467 589.912 33.6703 590.065 33.3378C590.204 33.0345 590.138 32.6399 590.303 32.3402C590.741 31.5327 591.388 31.8798 592.342 31.7994C594.242 31.635 594.907 30.7799 596.431 29.8043C597.527 29.1027 598.532 28.7081 599.862 28.7884C601.243 28.8761 601.978 29.5485 602.921 30.4876C603.516 31.0832 604.126 31.9127 604.992 32.1247C605.489 32.2452 606.063 32.1356 606.571 32.1247C608.362 32.0954 610.159 32.2014 611.95 32.1429C613.287 32.0991 614.606 31.909 615.94 31.8542C617.336 31.7994 618.666 31.9456 620.007 31.5181C620.49 31.3646 620.87 31.3098 621.337 31.2257C622.247 31.065 622.214 31.054 622.85 30.3159C623.128 29.9943 623.731 29.216 624.202 29.0406C624.557 28.9054 625.627 29.0771 626 29.0735C628.675 29.0552 631.291 29.4498 633.977 29.3768C634.894 29.3512 635.512 29.2781 636.133 30.0126C636.728 30.7178 636.619 31.5108 637.076 32.1795C637.843 33.3049 640.704 32.8372 641.771 32.7129C645.652 32.2635 649.741 32.2306 653.621 32.8226C654.151 32.903 654.531 33.0711 655.046 33.082C656.165 33.1076 657.52 32.4718 658.624 32.3366C660.908 32.0589 663.889 30.7141 665.68 32.1612C666.096 32.4973 665.702 33.3122 666.18 33.6082C666.425 33.758 667.489 33.6886 667.715 33.7288C668.059 33.7873 668.325 33.9188 668.691 33.9663C669.721 34.1088 670.5 34.2623 671.64 34.2623C673.525 34.2623 675.414 34.2185 677.296 34.2477C678.882 34.2733 680.362 34.635 681.908 34.8104C682.657 34.8945 683.231 34.6679 683.76 35.2708C684.371 35.9651 684.305 36.7617 685.346 37.0248C685.883 37.16 686.738 37.0248 687.298 37.0211C688.178 37.0138 689.07 37.0175 689.899 36.6959C690.097 36.6192 690.086 36.4292 690.294 36.3744C690.491 36.3232 690.689 36.3927 690.911 36.3305C692.223 35.9651 693.287 34.6716 694.445 34.0138C695.75 33.2757 697.299 33.1551 698.731 32.7605C700.719 32.2123 702.488 31.3025 704.578 31.1855C707.092 31.043 709.642 30.9371 712.098 30.4547C712.756 30.3268 713.362 30.283 714.031 30.3012C715.325 30.3378 716.132 30.1185 717.316 29.5485C718.076 29.1794 718.792 29.0479 719.549 28.7446C719.735 28.6715 719.958 28.4669 720.163 28.4486C720.342 28.434 720.433 28.4705 720.586 28.5217C720.74 28.5729 720.857 28.7008 721.003 28.7665C721.653 29.0552 722.381 29.11 723.086 29.1977C723.787 29.2854 724.405 29.4169 725.037 29.7056C725.253 29.8043 725.414 29.976 725.655 30.0308C726.141 30.1368 726.758 29.9249 727.259 29.9505C728.066 29.9943 728.56 30.2939 729.265 30.6082C730.537 31.1782 731.388 31.2404 732.718 31.2148C733.31 31.2038 734.023 31.3354 734.571 31.1673C735.408 30.9042 735.93 30.3597 736.906 30.6045C738.166 30.9188 738.437 32.121 738.981 33.1039C739.255 33.6009 738.948 33.5717 739.617 33.6594C740.253 33.7398 740.969 33.6484 741.609 33.6557C743.275 33.674 744.715 33.4072 746.363 33.0857C748.336 32.6983 750.371 32.4425 752.366 32.1941C754.237 31.9602 756.097 31.6277 758.034 31.5181C759.974 31.4084 761.202 32.8993 763.113 33.1039C765.393 33.3524 768.101 33.1661 770.143 32.1685C770.651 31.92 771.112 31.4998 771.667 31.3536C772.237 31.2038 772.61 31.339 773.176 31.445C774.715 31.7336 776.461 31.5181 778.014 31.5181C779.063 31.5181 780.112 31.5181 781.164 31.5181C781.8 31.5181 782.6 31.6679 783.222 31.54C783.634 31.4559 783.134 31.6277 783.857 31.3171C784.698 30.9517 785.246 30.6959 786.203 30.5972C789.053 30.3013 791.831 29.6581 794.655 29.121C795.96 28.8725 797.129 28.7555 798.477 28.7519C799.512 28.7482 801.138 27.9845 801.773 28.7994C802.431 29.6472 801.974 31.3719 802.753 32.1795C804.872 34.3756 808.771 32.0954 810.554 30.674C810.865 30.4255 811.409 29.6106 811.782 29.4169C812.18 29.2087 812.999 29.4023 813.441 29.3658C816.58 29.0917 814.687 23.5265 817.388 24.7908C818.305 25.2184 820.172 27.0089 820.322 27.9918C820.402 28.5034 820.34 28.3938 820.873 28.4961C821.433 28.6057 822.32 28.5728 822.847 28.4523C824.707 28.0284 826.614 28.1746 828.554 28.1746C829.464 28.1746 830.272 26.6727 830.838 26.2525C831.361 25.8615 831.964 25.3061 832.559 25.0284C833.166 24.7433 832.855 24.8347 833.407 24.9772C833.933 25.1161 834.642 25.8177 835.172 26.0808C836.071 26.5302 837.039 26.87 838.022 27.1039C841.26 27.8676 844.084 26.8883 847.154 26.2781C848.111 26.0881 849.036 26.0588 850.004 26.1867C852.854 26.5704 855.434 27.4328 858.35 26.8554C859.742 26.5814 860.977 26.3292 862.413 26.6033C863.506 26.8079 864.449 26.9212 865.552 26.9468C866.433 26.9687 867.065 27.3195 867.906 27.4401C872.093 28.0393 876.156 25.9784 880.202 25.5582C882.014 25.3682 884.126 25.5399 885.77 25.9455C887.521 26.3767 889.907 26.0917 891.77 26.0808C892.611 26.0735 893.437 25.9711 894.201 25.613C894.581 25.434 894.665 25.0576 894.913 24.7433C895.278 24.2829 896.499 24.6739 897.051 24.6739C898.863 24.6776 900.869 24.9735 902.514 24.177C903.613 23.6471 904.026 23.2378 905.298 23.278C907.019 23.3292 906.983 24.2391 908.393 24.9736C909.617 25.6094 911.996 25.1307 913.396 25.1307C915.109 25.1307 916.819 25.1307 918.533 25.1307C919.871 25.1307 922.18 24.6483 923.21 25.4595C924.226 26.2561 923.992 28.4815 925.016 29.1904C925.483 29.5156 926.722 29.2854 927.237 29.1429C928.103 28.9017 928.991 28.9054 929.886 28.7117C930.394 28.6021 930.668 28.2878 931.023 27.9516C931.224 27.7616 931.52 27.9224 931.801 27.8895C932.247 27.8384 932.485 27.2464 932.897 27.0527C933.698 26.6764 934.549 27.1222 935.331 26.5302C935.715 26.2415 936.011 25.8286 936.457 25.6605C936.906 25.4888 937.399 25.5436 937.874 25.6094C938.645 25.7153 940.432 24.4583 940.991 24.155C942.289 23.4425 943.754 23.4827 944.978 22.5509C946.125 21.6739 947.043 21.4547 948.409 21.2573C949.286 21.1294 950.079 20.8627 950.96 20.8809C953.368 20.9248 955.739 20.5594 958.158 20.6142C960.351 20.6617 962.536 21.049 964.717 21.1879C965.273 21.2244 965.605 21.3962 966.117 21.6154C968.225 22.529 970.692 22.4668 972.691 23.6471C973.283 23.9979 973.798 24.4364 974.383 24.7945C975.852 25.6898 977.891 25.4997 979.506 25.9492C980.405 26.2013 979.977 26.3365 980.587 26.7787C980.836 26.9614 980.993 26.87 981.256 26.9468C981.943 27.1478 982.407 27.6191 982.919 28.1709C983.744 29.0625 984.578 25.9711 985.747 26.2708C986.649 26.501 987.6 26.5375 988.52 26.7129C989.832 26.965 991.031 27.6045 992.335 27.8603C993.676 28.1197 995.142 27.8566 996.505 27.8859C997.447 27.9078 998.087 27.6338 998.993 27.2976C1001.44 26.395 1004.54 27.0199 1007.04 27.3962C1008.35 27.5936 1009.65 27.5935 1010.97 27.5753C1011.71 27.5643 1013.19 27.2245 1013.81 27.7287C1014.08 27.9407 1014.26 28.5875 1014.47 28.8688C1014.88 29.4279 1015.36 29.7348 1015.97 30.082C1016.99 30.6703 1018.08 31.0394 1019.22 31.3646C1020.49 31.73 1021.82 31.5217 1023.13 31.3865C1025.11 31.1819 1027.09 31.233 1029.08 31.2367C1031.08 31.2403 1033.08 31.2367 1035.08 31.2367C1035.87 31.2367 1036.9 31.0577 1037.68 31.2038C1038.4 31.3427 1038.68 31.8213 1039.46 31.8579C1040.36 31.9017 1041.29 31.6423 1042.11 32.0442C1042.69 32.3293 1043.21 32.8262 1043.85 33.0016C1044.15 33.082 1044.46 33.0382 1044.75 33.1076C1045.36 33.2611 1045.79 33.6849 1046.34 33.9736C1047.63 34.6533 1049.11 34.7154 1050.48 35.1904C1051.08 35.4024 1051.68 36.0784 1052.26 36.1953C1052.53 36.2501 1053.84 35.5522 1053.96 35.501C1054.9 35.0991 1055.83 34.7044 1056.72 34.2075C1057.61 33.7105 1058.17 33.3488 1059.18 33.3634C1060.22 33.378 1061.29 33.3963 1062.22 33.9481C1062.61 34.1783 1063.08 34.5839 1063.36 34.8908C1063.63 35.1685 1063.84 35.7678 1064.13 35.9614C1064.55 36.2465 1065.18 36.1149 1065.7 36.1113C1066.65 36.1076 1067.34 36.093 1068.21 35.8774C1068.68 35.7568 1069.31 35.7386 1069.81 35.7897C1070.9 35.903 1070.98 36.6155 1071.72 37.2696C1073.12 38.4901 1074.68 38.2233 1076.38 38.238C1077.54 38.2489 1077.44 38.629 1078.36 39.294C1079.85 40.372 1082.19 39.6448 1083.97 39.8348C1085.15 39.9591 1086.51 40.2733 1087.69 40.0979C1088.68 39.9517 1089.38 39.0126 1090.32 38.8482C1090.94 38.7386 1091.25 39.2428 1091.81 39.4073C1092.32 39.5571 1093.29 39.7434 1093.83 39.7763C1094.66 39.8238 1095.98 39.6667 1096.74 40.1198C1097.53 40.5985 1096.61 41.9177 1097.16 42.4913C1098.03 43.4049 1101.25 42.685 1102.06 41.5924C1102.36 41.2014 1102.33 40.7556 1102.58 40.3208C1103.02 39.5388 1103.95 39.0747 1104.33 38.2964C1104.63 37.7008 1104.58 37.7739 1105.06 37.2733C1105.61 36.6923 1105.92 35.6728 1106.27 34.9895C1106.88 33.8092 1106.23 35.596 1107.41 34.9858C1108.18 34.5875 1107.39 35.3987 1108.73 35.1283C1109.64 34.9456 1109.39 36.3415 1110.03 36.3817C1110.59 36.4182 1110.22 35.216 1110.57 35.7057C1110.76 35.9724 1111.04 32.4718 1111.24 32.7093C1111.47 32.9907 1111.48 33.1551 1111.62 33.5315C1111.95 34.4523 1112.57 34.8104 1113.06 35.5376C1113.47 36.1442 1113.67 36.9992 1114.04 37.646C1114.46 38.3549 1114.82 38.4572 1115.45 38.9396C1115.56 39.0199 1115.69 39.3707 1115.77 39.4036C1116.09 39.5461 1116.43 39.4219 1116.77 39.4365C1117.7 39.484 1118.46 40.1198 1119.37 40.3683C1120.7 40.7337 1122.75 38.819 1123.92 38.2124C1125.06 37.6168 1126.13 36.9225 1127.22 36.2355C1127.83 35.8518 1128.9 34.6277 1129.44 35.1649C1129.91 35.6362 1129.36 36.3853 1129.95 36.7252C1130.08 36.8019 1131.38 37.2002 1131.37 36.7507C1131.33 35.6362 1133.39 36.4219 1134.45 36.1734C1137.16 35.5412 1139.68 39.305 1142.27 40.1527C1142.87 40.3464 1143.4 40.6022 1144 40.6789C1145.78 40.8981 1147.6 40.7812 1149.39 41.0589C1150.19 41.1832 1150.9 41.2234 1151.69 41.2636C1152.31 41.2965 1152.9 37.8287 1153.52 37.9055C1154.61 38.037 1155.77 37.9383 1156.86 37.9201C1157.27 37.9128 1158.58 37.7702 1159.14 38.0224C1160.18 38.4901 1160.93 39.3451 1162.09 39.6704C1163.33 40.0139 1164.78 39.7763 1166.04 39.7654C1166.61 39.7617 1167.64 39.5388 1168.15 39.7471C1168.33 39.8202 1168.41 39.7179 1168.58 39.875C1168.7 39.9846 1168.71 40.1783 1168.83 40.2879C1169.04 40.4889 1169.33 40.5839 1169.6 40.7081C1171.02 41.3659 1172.62 40.9237 1174.11 40.9822C1175 41.0187 1175.86 41.2416 1176.73 41.3111C1177.72 41.3915 1178.78 41.3001 1179.78 41.2782C1181.78 41.2307 1183.77 41.0955 1185.73 40.7155C1188.66 40.1491 1191.32 39.4402 1194.32 39.4767C1196.8 39.506 1200.07 40.0248 1202.46 39.5242C1203.48 39.3123 1203.1 39.1332 1204.11 38.3987C1205.14 37.6387 1206.32 37.5437 1207.55 37.2294C1210.99 36.3488 1214.04 34.4304 1217.64 34.5765C1222.07 34.7556 1224.3 38.6143 1227.79 40.5729C1229.31 41.4243 1231.01 41.3549 1232.68 41.0297C1233.91 40.7885 1235.09 40.2916 1236.34 40.1162C1237.59 39.9408 1238.87 40.2952 1240.11 40.0321C1241.8 39.674 1243.85 39.4438 1245.36 38.3914C1246.82 37.3792 1245.9 38.0224 1247.42 37.6825C1248.35 37.4743 1248.77 36.8458 1249.68 36.5315C1250.85 36.1369 1252.51 36.4292 1253.73 36.4292C1255.89 36.4255 1257.94 36.5827 1260.11 36.3415C1261.01 36.2392 1261.89 36.1588 1262.8 36.1222C1263.9 36.0784 1264.98 35.9176 1265.91 36.6082C1267.52 37.7922 1266.99 39.4658 1269.44 38.6619C1270.2 38.4134 1270.86 37.9639 1271.61 37.6935C1272.56 37.3537 1273.56 37.2258 1274.54 37.065C1274.96 36.9956 1278.78 31.9675 1278.93 31.8652V7.82117C1278.73 7.91618 1277.49 9.9515 1277.28 10.0319C1276.24 10.4229 1275.03 11.362 1274.14 12.0161C1273.19 12.703 1272.41 12.9625 1271.28 12.7031C1269.13 12.2024 1268.61 11.9503 1266.23 12.725C1265.69 12.8967 1265.29 13.211 1264.69 13.284C1263.42 13.4339 1262.43 13.9747 1261.15 14.3182C1259.5 14.764 1259.78 14.1611 1258.46 13.8468C1256.9 13.4777 1255.08 14.2524 1253.56 14.4424C1252.79 14.5374 1251.44 14.7201 1250.64 14.5155C1250.03 14.362 1249.68 13.8066 1249.1 13.6275C1248.3 13.3754 1247.18 13.5983 1246.35 13.4631C1244.78 13.2037 1243.23 12.5021 1241.61 12.6336C1240.12 12.7542 1238.16 13.1123 1236.84 13.803C1236.36 14.0514 1235.96 14.4241 1235.48 14.6726C1234.98 14.9357 1234.39 14.9723 1233.84 15.1184C1233.06 15.3231 1232.64 15.4144 1231.84 15.4071C1231.19 15.4034 1229.76 15.6958 1229.24 15.2061C1228.7 14.6982 1228.8 13.7226 1228.18 13.2146C1227.47 12.63 1225.81 12.9917 1224.97 12.9223C1222.08 12.6811 1218.95 12.5057 1216.24 11.3401C1215.37 10.9637 1213.09 9.16588 1211.9 9.60072C1211.57 9.72131 1211.31 10.0648 1210.99 10.2402C1210.05 10.7445 1209.1 10.4631 1208.07 10.5216C1206.17 10.6275 1204.27 10.9747 1202.36 11.0843C1200.93 11.1683 1198.94 11.4607 1197.51 11.1135C1196.47 10.8614 1195.95 10.1744 1195.35 9.39609C1194.77 8.64335 1194.47 8.16101 1193.43 8.07331C1192.64 8.00388 1191.79 8.10252 1191 8.10252C1190.28 8.10252 1189.19 7.80654 1188.47 7.79923C1187.89 7.79558 1186.87 7.57634 1186.33 7.89424C1185.9 8.15003 1185.77 8.52641 1185.52 9.00144C1185.13 9.71765 1185.13 10.1452 1184.31 10.2512C1183.45 10.3644 1182.62 9.95151 1181.76 9.91497C1181.11 9.88574 1180.38 9.8419 1179.76 9.99172C1179.03 10.1671 1179.2 10.4339 1178.15 10.1086C1177.7 9.96979 1177.27 9.72495 1176.82 9.56783C1175.88 9.24261 1175.05 8.81143 1174.13 8.44602C1173.08 8.02579 1172.14 8.06599 1171.01 8.08792C1169.26 8.11715 1167.51 8.13543 1165.76 8.07696C1164.47 8.03311 1162.99 7.59097 1161.72 7.76636C1161.4 7.81021 1161.09 8.07696 1160.8 8.07331C1160.4 8.066 1159.96 7.63846 1159.66 7.37902C1159.16 6.94052 1158.54 6.3778 1158.23 5.78949C1158.08 5.49716 1158.17 4.8796 1157.84 4.89787C1157.13 4.94172 1157.08 5.65793 1156.54 6.01238C1155.81 6.49107 1155.48 7.30595 1154.93 7.95638C1153.94 9.13666 1152.91 9.67379 1151.42 9.67379C1150.97 9.67379 1150.29 9.76516 1150 9.43629C1149.75 9.16589 1149.48 8.44237 1149.32 8.08061C1148.89 7.16343 1148.49 6.34491 1147.99 5.446C1147.4 4.39361 1147.22 3.67011 1147.13 2.53003C1147 0.710285 1146.07 4.98558 1144.28 4.98193C1142.73 4.97827 1141.79 -0.535767 1140.81 0.655472C1139.49 2.26328 1138.45 4.07206 1137.44 5.8918C1136.47 7.63847 1135.52 9.42167 1134.21 10.9272C1133.41 11.837 1132.45 12.5496 1131.29 12.9223C1130.72 13.105 1130.14 13.2366 1129.55 13.3608C1128.97 13.485 1128.49 13.7774 1127.99 14.1391C1127.06 14.8115 1126.19 14.8078 1125.03 14.848C1124.57 14.8663 1123.6 15.0636 1123.2 14.7567C1122.52 14.2487 1122.7 12.6336 1122.64 11.9686C1122.58 11.2889 1122.55 10.4777 1122.24 9.86381C1121.86 9.11107 1121.45 8.9722 1120.7 8.61045C1120.36 8.44601 1120.21 8.28157 1119.89 8.10618C1118.54 7.36805 1117.4 7.87964 1116.17 8.43506C1115.34 8.80778 1114.65 8.50813 1114.04 9.21338C1113.21 10.1854 1113.17 11.446 1111.65 11.5045C1110.48 11.5483 1109.95 10.3717 1109.44 9.44725C1108.13 7.094 1107.26 4.26937 1105.56 2.15729C1105.22 1.72976 1105.06 1.50688 1104.56 1.36437C1103.45 1.04281 1101.26 1.69689 1100.37 2.19019C1098.8 3.06352 1097.05 4.38266 1096.36 6.09278C1095.91 7.18536 1096.33 9.20974 1095.1 9.8419C1094.27 10.2694 1092.89 9.86016 1091.98 10.01C1091.52 10.0831 1091.11 10.2585 1090.63 10.2804C1089.02 10.3535 1088.01 9.35589 1086.67 8.6543C1084.74 7.64211 1084.97 5.83334 1083.32 4.41189C1082.83 3.98436 1082.4 4.72247 1081.91 5.4131C1081 6.69935 1079.43 7.3644 1078.06 8.15003C1076.44 9.08183 1075.65 9.03069 1073.89 9.03434C1073.12 9.03799 1071.89 9.00144 1071.18 9.4034C1070.81 9.60803 1070.84 9.63727 1070.41 9.99537C1069.11 11.0478 1068.25 11.077 1066.98 11.5922C1065.68 12.1184 1064.34 13.0685 1062.86 13.0173C1061.58 12.9735 1061.56 12.1001 1061.22 11.077C1061 10.4521 1061.11 10.58 1060.52 10.5179C1059.76 10.4375 1058.79 11.3181 1058.16 10.887C1057.19 10.2109 1057.85 8.51179 1057.86 7.33516C1057.86 6.86378 1058.3 5.28157 1057.81 5.13175C1055.75 4.5142 1053.87 7.29499 1052.09 8.46796C1051.1 9.11839 1050.27 9.91498 1049.39 10.7006C1048.29 11.6799 1047.95 11.4826 1047.45 10.1488C1047.03 9.00876 1046.54 7.9052 1046.09 6.77974C1045.9 6.28278 1045.98 5.23406 1045.44 5.29252C1044.71 5.36926 1044.19 7.78097 1043.49 8.08426C1042.78 8.39121 1041.61 8.10255 1040.84 8.11351C1039.54 8.13178 1038.53 7.63845 1037.26 7.49594C1036.06 7.36439 1035.03 7.24016 1033.87 6.8784C1033.64 6.80532 1032.9 6.67742 1032.66 6.4728C1032.38 6.23893 1032.04 5.58851 1031.78 5.29252C1031.29 4.75537 1030.77 4.20726 1030.56 3.50202C1030.42 2.98679 1030.32 2.49348 1029.93 2.19749C1028.8 1.35705 1026.71 3.70664 1025.98 4.57998C1025.27 5.43869 1025.02 5.25599 1024.04 5.53735C1021.31 6.32299 1018.42 6.52031 1015.58 6.60801C1014.47 6.64455 1014.03 6.94054 1013.43 6.2828C1013.37 6.21703 1013.39 6.09642 1013.34 6.02699C1013.2 5.87352 1012.97 5.9868 1012.76 6.00507C1011.61 6.10374 1010.55 5.66525 1009.48 5.1756C1008.6 4.77365 1007.9 3.84186 1007.01 3.54222C1006.13 3.24258 1005.65 4.06841 1004.89 4.16341C1003.73 4.31323 1002.48 4.10129 1001.3 4.21092C1000.18 4.31323 999.051 4.4265 997.948 4.63113C996.044 4.98193 994.36 5.35464 992.412 5.35829C990.76 5.36194 989.16 5.82602 987.519 5.95392C986.799 6.00873 985.509 6.20605 984.768 6.00507C983.675 5.70544 984.852 7.4521 983.942 7.53614C982.608 7.65673 983.682 6.69206 983.24 7.91253C982.769 9.2207 981.72 10.1598 980.51 10.5471C979.232 10.9601 977.821 10.5617 976.48 10.5435C975.245 10.5252 973.97 10.4083 972.8 10.9162C972.223 11.1683 971.668 7.91982 971.105 8.20484C969.387 9.08182 967.896 11.8626 967.261 10.1159C966.764 8.74931 966.596 7.24747 966.515 5.8041C966.475 5.10982 967.034 3.99896 966.471 3.5897C964.823 2.39846 962.171 5.33636 960.607 6.5276C959.66 7.24746 958.491 7.48864 957.336 7.69327C956.463 7.84674 955.418 7.59827 954.577 7.77732C953.094 8.09157 953.101 9.8163 952.429 10.8906C951.256 12.7688 949.041 9.74689 946.896 9.65188C945.986 9.61168 945.212 12.7834 944.324 12.7031C942.61 12.5459 941.127 11.8115 940.948 9.85286C940.82 8.43141 941.722 6.49108 940.677 5.5264C939.826 4.73711 937.991 6.49839 936.961 7.10132C935.795 7.78464 935.477 8.86259 934.56 9.81266C933.643 10.7664 933.179 10.9089 932.163 11.3949C931.034 11.9357 930.062 12.7433 929.119 13.5472C928.271 14.2707 927.431 11.563 926.36 11.9649C925.622 12.2426 924.95 12.535 924.237 12.8492C922.885 13.4485 921.972 16.2804 921.325 15.1476C920.766 14.1683 920.214 13.1087 919.816 12.0563C919.491 11.1939 919.439 10.2073 919.074 9.37415C918.727 8.58121 919.034 8.82604 918.467 8.90278C918.343 8.9174 918.255 9.03069 918.139 9.07454C917.283 9.41437 916.352 9.48744 915.434 9.56417C914.835 9.61533 914.305 9.43629 913.995 9.8492C913.794 10.1123 913.713 10.4631 913.403 10.6202C913.026 10.8139 912.603 10.9016 912.197 11.0295C909.577 11.8663 906.146 9.73957 904.092 11.5008C903.208 12.2572 904.903 14.0807 903.931 14.7603C901.812 16.2476 899.123 13.3389 896.587 13.2256C895.187 13.1635 893.875 13.401 892.52 12.9661C891.858 12.7542 891.186 12.7725 890.561 12.5423C889.677 12.2134 888.767 11.7164 887.901 11.3291C887.619 11.2049 886.94 11.1464 886.753 10.8504C886.647 10.6823 886.783 10.3571 886.677 10.1963C886.165 9.43629 885.332 10.8212 884.901 11.1391C884.587 11.373 884.393 11.6288 884.108 11.8809C883.055 12.7981 881.733 12.9588 880.388 13.1489C879.803 13.2329 878.349 13.2548 877.852 14.1282C877.604 14.5593 876.624 14.1939 876.131 14.1866C874.874 14.172 873.642 14.0258 872.389 13.9418C870.529 13.8212 868.688 13.9053 866.831 13.9053C865.728 13.9053 863.184 13.9637 862.465 12.8456C862.074 12.2426 862.052 11.9686 861.324 11.5703C860.612 11.183 860.115 11.1062 859.282 11.1208C858.441 11.1354 857.382 11.3182 856.541 11.1683C855.924 11.0587 855.313 10.6348 854.692 10.4412C853.687 10.1269 852.759 9.2207 851.747 9.02703C851.177 8.92107 851.141 9.0855 850.643 9.23532C849.715 9.51668 848.773 9.60803 847.812 9.90401C846.536 10.295 846.01 11.4533 844.848 11.9613C844.318 12.1915 843.244 12.3669 842.736 12.4911C841.384 12.82 840.127 12.9771 838.833 13.496C837.394 14.0734 835.757 14.479 834.233 14.7128C832.888 14.9175 831.467 14.8115 830.1 14.7932C829.508 14.7859 828.942 14.7311 828.383 14.4899C826.976 13.887 826.325 12.524 825.189 11.6068C824.162 10.7737 823.234 9.81266 822.207 8.99414C821.418 8.36198 821.166 8.39121 820.252 8.3839C819.032 8.37294 817.917 8.65795 816.719 8.70545C816.017 8.73469 815.305 8.69815 814.603 8.70545C813.821 8.71642 814.029 8.5264 813.613 8.46063C812.992 8.36562 812.378 8.38755 811.749 8.39121C810.335 8.40217 808.983 8.29256 807.573 8.16832C806.451 8.06966 805.157 7.71153 804.046 7.75173C802.756 7.79558 801.383 8.256 800.115 8.54833C799.406 8.71277 798.631 8.98317 798.16 9.56783C797.495 10.3937 797.041 10.8212 796.026 11.15C795.108 11.4424 794.345 11.7822 793.486 12.2572C792.412 12.8529 791.535 13.5252 790.647 14.362C789.664 15.2865 788.571 16.0429 787.457 16.7993C786.883 17.1867 786.306 17.5849 785.633 17.5374C784.285 17.4461 785.118 13.9857 784.362 13.2914C782.988 12.0307 780.306 13.4083 778.479 13.6531C776.951 13.8578 775.511 13.8906 773.977 13.8614C772.632 13.8358 771.565 13.9893 770.312 14.4132C769.592 14.658 768.865 14.7932 768.108 14.8407C767.772 14.8626 767.556 14.7347 767.363 14.4753C767.29 14.3766 767.217 14.2634 767.107 14.2086C766.676 13.9893 766.179 14.2378 765.737 14.4534C765.152 14.7421 764.933 15.155 764.472 15.5606C763.957 16.0173 763.826 15.9625 763.139 15.9954C762.156 16.0429 761.527 16.2329 760.537 16.4777C759.082 16.8358 758.882 16.6203 758.246 15.3742C757.836 14.5703 757.635 13.5362 757.036 12.831C756.126 11.7603 753.978 10.9929 752.717 10.7408C751.423 10.4777 750.119 10.284 748.836 9.97343C747.656 9.68841 746.49 9.34494 745.303 9.08915C744.353 8.88452 742.054 8.15004 741.495 9.0526C740.918 9.98805 739.741 10.284 739.04 10.4558C737.666 10.792 736.672 9.79439 735.397 9.45455C734.341 9.17319 733.142 9.30473 732.038 9.30473C729.948 9.30473 727.716 8.86626 725.647 9.27917C724.979 9.41437 724.551 9.714 724.062 10.1635C722.98 11.1574 721.701 12.0709 720.148 12.0453C719.706 12.038 719.264 12.0599 718.825 12.0563C717.926 12.0453 717.287 11.7786 716.424 11.5082C715.822 11.3181 715.043 11.2304 714.513 10.9345C714.407 10.876 714.378 10.6312 714.261 10.58C713.64 10.3206 713.26 10.5983 712.719 10.0684C712.617 9.96978 712.635 9.75784 712.54 9.67014C712.372 9.51667 711.766 9.47283 711.605 9.4436C710.709 9.28647 709.818 9.29377 708.915 9.31204C706.401 9.36685 704.289 8.25601 701.903 7.675C700.12 7.24017 698.19 7.46306 696.374 7.48133C694.518 7.4996 692.665 7.48135 690.813 7.35345C688.924 7.22191 686.991 7.67135 685.109 7.77002C684.034 7.82483 683.256 8.45332 682.218 8.6616C681.012 8.90643 679.628 8.69815 678.403 8.69815C677.231 8.6945 674.885 9.15125 673.924 8.09887C673.774 7.93444 673.865 7.69693 673.66 7.52519C673.503 7.39364 672.667 7.46672 672.571 7.46672C671.523 7.45211 670.467 7.48133 669.418 7.48133C667.101 7.48133 664.306 8.04041 662.051 7.42287C661.69 7.32421 661.456 7.16709 661.156 6.9515C660.425 6.42896 659.665 5.76025 658.869 5.34733C658.101 4.94904 658.719 5.43869 658.24 4.67864C657.944 4.21091 657.115 3.66645 656.567 3.55318C655.975 3.43259 655.887 3.61895 655.324 3.76511C653.603 4.20726 653.04 2.87716 652.127 1.69323C651.875 1.36436 651.707 0.907605 651.319 0.757787C651.129 0.684704 650.943 0.863755 650.746 0.911258C649.894 1.11589 648.856 1.09761 647.932 1.08664C646.361 1.06837 644.34 0.797972 643.083 1.99287C642.425 2.61772 641.957 3.42161 641.347 4.09397C640.722 4.78825 639.955 5.34733 639.352 6.06354C639.089 6.37414 638.921 6.9186 638.65 7.18169C637.978 7.82847 635.866 7.1744 634.989 7.10132C633.319 6.96246 631.485 6.999 629.829 6.75417C628.086 6.49473 625.47 5.22309 623.72 6.31932C622.448 7.11592 621.783 8.87719 620.354 9.37415C618.531 10.01 616.806 10.6092 615.07 11.457C613.704 12.122 613.101 12.038 611.745 11.7713C610.17 11.4607 608.248 12.2353 606.728 11.6982C606.275 11.5374 606.1 11.2852 605.778 10.9491C605.5 10.6604 605.011 10.4558 604.791 10.1452C604.539 9.79074 604.521 9.36686 604.262 8.99414C603.67 8.15369 602.179 7.78462 601.291 7.32786C600.341 6.84186 599.46 6.27914 598.543 5.73103C597.922 5.36196 597.191 4.92712 596.442 5.1281C596.051 5.23407 595.718 5.50446 595.455 5.80775C595.159 6.14758 595.108 6.49837 594.885 6.88205C594.355 7.77366 593.336 7.8175 592.397 7.79923C590.844 7.77 589.287 7.75905 587.738 7.77732C586.919 7.78828 586.141 7.92714 585.33 8.02215C584.624 8.10254 583.32 7.82846 582.662 8.10618C582.162 8.31811 582.33 8.48622 581.982 8.84432C581.515 9.32666 580.51 9.6263 579.9 9.79805C578.946 10.0685 577.828 10.2475 576.83 10.2365C575.325 10.2183 573.845 9.96613 572.354 9.75054C571.17 9.58245 569.96 9.47648 568.846 9.04164C568.327 8.84067 567.742 8.40216 567.304 8.70911C566.752 9.09279 566.27 9.49109 565.952 10.0684C565.703 10.5216 566.113 11.1099 565.725 11.3839C565.32 11.6763 565.09 11.8188 564.677 11.9905C564.337 12.133 563.982 12.0161 563.621 12.1111C563.31 12.1951 563.098 12.429 562.744 12.3925C562.185 12.3376 561.739 11.6872 561.256 11.4241C560.292 10.8979 559.1 10.865 558.074 10.5435C556.886 10.1707 555.826 9.48745 554.675 9.02703C554.156 8.81875 552.282 8.47159 551.412 8.20484C551.642 8.93566 551.361 10.8139 550.985 11.256C550.751 11.5338 550.681 11.3255 550.393 11.468C550.184 11.5703 549.998 11.7676 549.775 11.8663C548.562 12.4034 547.089 11.7676 545.825 12.1659C544.184 12.6848 542.799 13.0612 541.056 12.9881C539.993 12.9442 539.149 12.535 538.141 12.3048C537.019 12.049 536.445 11.1172 535.831 10.2C535.681 9.97345 535.309 9.08184 535.024 8.99414C534.728 8.90279 534.326 9.1732 534.052 9.23532C533.123 9.45091 532.272 9.06358 531.472 9.58611C530.938 9.93691 530.405 10.3133 529.871 10.6714C529.235 11.0952 528.662 11.5922 528.066 12.0673C527.101 12.831 526.053 12.6848 524.854 12.6592C523.462 12.6263 522.611 11.2816 521.233 11.1099C520.495 11.0149 519.983 11.3401 519.442 10.6129C519.132 10.1963 519.479 9.69572 519.146 9.35589C518.723 8.92105 518.054 9.11838 517.473 8.93202C515.96 8.44968 514.473 8.34735 512.883 8.36196C510.263 8.38023 507.647 8.36927 505.027 8.45697C502.824 8.53006 500.635 8.73105 498.431 8.67259C497.16 8.6397 496.253 8.7822 495.124 9.34494C494.595 9.61168 494.145 9.95881 493.699 10.3352C493.542 10.4704 493.451 10.6494 493.301 10.7883C492.716 11.3254 491.331 10.2183 490.893 10.876C490.137 12.0051 488.828 11.7493 488.386 12.4948C488.302 12.6373 488.302 12.8273 488.152 12.9077C487.886 13.0502 487.568 12.9808 487.261 12.9588C485.927 12.8711 484.568 13.0502 483.241 12.9223C480.884 12.6957 479.105 11.0879 476.715 11.1208C475.794 11.1318 474.731 10.9564 473.825 11.1099C473.408 11.1793 473.017 11.3693 472.597 11.468C471.921 11.6251 471.398 11.7566 470.686 11.742C469.816 11.7274 468.8 11.5703 467.993 11.9942C467.353 12.3267 467.156 13.0977 466.564 13.4558C466.348 13.5874 465.588 13.8322 465.318 13.8797C464.693 13.993 463.856 13.8651 463.242 13.8651C462.19 13.8651 461.108 13.9345 460.056 13.8614C459.712 13.8358 459.522 13.9601 459.186 13.7664C458.631 13.4485 458.675 11.8042 458.021 12.1221C457.659 12.2975 458.448 13.2 458.273 13.5581C457.951 14.2159 456.767 13.8833 456.117 13.8687C455.722 13.8614 455.214 13.591 454.922 13.591C454.297 13.591 454.133 14.2597 453.705 14.658C453.183 15.144 452.952 15.1002 452.331 15.0855C451.926 15.0746 451.586 14.9759 451.209 15.1842C450.705 15.4619 450.504 16.6203 449.868 16.3572C449.174 16.0685 448.867 15.2171 448.249 14.7932C447.964 14.5959 447.632 14.4242 447.285 14.4022C446.744 14.3657 446.108 14.7348 445.735 14.3584C445.502 14.1172 445.498 13.6312 445.165 13.6129C444.504 13.5764 444.153 14.4972 443.517 14.6872C442.67 14.943 443.039 12.9186 443.05 12.2536C443.061 11.5959 443.042 10.9381 443.05 10.2804C443.057 9.67745 443.24 8.83701 442.611 8.49717C442.019 8.17927 441.113 8.44237 440.459 8.12812C440.002 7.90887 439.545 7.67501 439.143 7.36806C438.95 7.2219 438.829 6.97707 438.617 6.86014C438.456 6.77244 438.53 6.82361 438.329 6.84188C437.985 6.87477 437.408 7.67136 437.068 7.86503C435.621 8.69816 433.333 8.60314 431.868 7.85039C431.258 7.53614 430.03 6.30107 429.329 6.54224C428.547 6.81264 427.951 8.66526 427.483 9.26453C426.204 10.9125 424.293 11.9649 422.872 13.4997C422.568 13.8285 421.958 14.7457 421.516 14.9796C421.414 15.0344 421.18 15.0234 421.107 15.0746C420.442 15.5606 420.01 16.2402 419.06 16.3243C418.505 16.3718 418.14 16.2695 417.654 16.4777C417.266 16.6422 417.19 16.876 416.7 16.9309C416.503 16.9528 416.287 16.9126 416.086 16.9089C415.129 16.8907 414.171 16.9053 413.218 16.9053C412.728 16.9053 412.118 17.0112 411.639 16.9199C411.551 16.9016 411.449 16.7591 411.409 16.7518C411.146 16.697 410.788 16.5983 410.451 16.5874C409.677 16.5618 408.822 16.5106 408.051 16.5691C407.221 16.6276 406.578 17.0478 405.818 17.3072C404.565 17.7311 402.862 17.574 401.554 17.5374C400.377 17.5045 399.405 16.9126 398.239 16.9016C397.055 16.8907 396.259 16.9199 395.283 16.1635C394.56 15.6044 393.906 15.1002 393.087 14.669C392.557 14.3913 392.057 14.3474 391.574 14.1793C390.986 13.971 390.997 13.4814 390.518 13.1379C389.904 12.6921 390.116 13.0867 389.67 13.2439C388.706 13.5764 387.734 13.8504 386.784 14.2414C385.793 14.6507 384.997 15.0892 383.937 15.1001C382.771 15.1148 381.624 14.9503 380.495 15.2865C379.264 15.6519 378.412 16.2512 377.075 15.9808C376.147 15.7944 374.667 14.7055 373.75 14.87C372.982 15.0052 372.039 15.9917 371.396 16.4193C371.188 16.5581 370.976 16.6934 370.771 16.8395C370.395 17.099 370.033 17.384 369.65 17.6324C369.05 18.0198 368.418 18.356 367.687 18.144C366.737 17.8736 366.299 16.9784 365.648 16.3353C364.98 15.6775 364.041 15.44 363.328 14.8371C362.378 14.0368 361.833 14.1611 360.617 14.0076C358.165 13.7006 355.771 12.9588 353.327 12.6738C352.479 12.5752 351.332 12.9333 350.564 12.6775C350.038 12.5021 350.027 12.0819 349.486 12.0782C348.478 12.0746 347.506 12.3961 346.497 12.2828C345.255 12.144 344.009 12.1074 342.759 12.0709C341.655 12.0417 340.563 12.0672 339.478 12.3011C338.513 12.5057 337.596 12.8602 336.653 13.1452C335.893 13.3754 336.138 13.3572 335.546 12.9844C331.815 10.6312 327.288 11.3328 323.125 10.2877C321.076 9.77245 319.205 9.28645 317.096 9.07086C315.971 8.95393 314.864 8.7749 313.8 8.36929C312.324 7.80656 311.151 8.20485 309.678 8.6945C308.261 9.16588 307.424 10.5471 306.064 11.0331C305.03 11.4058 303.762 11.1208 302.681 11.1281C300.777 11.1391 298.387 11.3255 296.692 10.295C295.84 9.77613 295.442 9.21337 294.386 9.26819C293.637 9.30838 292.888 9.29378 292.139 9.29378C290.918 9.29378 289.23 9.61168 288.13 9.15857C286.332 8.41313 284.333 8.69085 282.382 8.68719C281.52 8.68354 280.672 8.62872 279.828 8.75296C278.779 8.90643 277.716 9.09645 276.594 9.00509C275.849 8.94298 275.158 8.70182 274.402 8.66893C273.112 8.61412 271.833 8.78586 270.539 8.68354C268.343 8.50815 265.438 6.98437 263.987 4.7444C263.622 4.18167 262.233 5.2633 261.634 5.43869C260.859 5.66525 260.158 5.6689 259.361 5.65063C258.049 5.62139 256.898 5.63601 255.605 5.33638C253.095 4.75537 250.35 4.97828 247.789 5.02943C247.058 5.04405 246.389 5.2231 245.673 5.38754C244.303 5.69813 242.651 6.86745 241.222 6.49839C240.258 6.24991 239.012 5.5008 238.171 4.94538C237.769 4.68228 237.345 4.21823 236.859 4.1086C235.851 3.87474 234.747 4.81383 233.965 5.25963C231.977 6.3924 228.605 5.01116 227.395 6.9186C227.106 7.37537 227.293 7.83943 227.033 8.24504C226.021 9.81631 224.362 11.0295 222.63 11.669C219.287 12.904 215.647 13.3718 212.808 10.9199C211.971 10.1963 211.467 10.6458 210.356 10.9856C208.792 11.4607 207.933 12.2938 207.104 13.6568C206.03 15.4254 204.195 15.0161 202.657 16.3316C201.776 17.0843 201.44 16.9199 200.402 16.412C199.807 16.1196 199.518 15.8383 199.101 15.3231C198.729 14.8626 198.531 14.1647 197.855 14.0953C197.238 14.0331 196.701 14.8699 196.185 14.3949C195.791 14.0295 196.394 13.3608 196.065 12.9771C195.495 12.3121 194.515 13.1964 193.839 13.5618C192.491 14.2962 191.402 14.1793 189.926 14.1684C188.556 14.161 187.185 14.183 185.819 14.1647C184.602 14.1464 182.687 13.9564 181.697 14.8407C181.039 15.429 181.269 15.8456 180.228 16.0027C179.051 16.1818 177.845 15.3377 177.557 14.1866C177.436 13.7043 177.568 11.4862 176.99 12.0344C175.975 13.0027 173.862 12.9662 173.004 12.9442C171.999 12.9187 171.301 13.5983 170.38 14.0551C169.134 14.6726 168.549 15.1148 167.194 15.0819C166.733 15.0709 166.51 15.3888 166.061 15.3596C164.051 15.2207 162.531 14.5447 160.912 14.9467C160.119 15.144 158.475 15.2134 157.839 14.4424C157.375 13.8797 158.347 11.8115 157.127 11.9905C156.071 12.144 155.764 14.0843 155.307 14.742C154.35 16.1233 152.636 15.2427 151.624 14.3401C149.742 12.6592 147.922 11.0112 145.287 11.1062C144.074 11.1501 143.058 11.1391 141.893 11.362C141.173 11.5009 139.488 11.6835 138.812 11.4533C138.352 11.2962 138.524 11.0879 138.191 10.8723C137.87 10.6641 136.846 10.8249 136.55 10.8102C136.152 10.792 135.768 10.6239 135.436 10.887C134.88 11.3255 134.563 12.0161 134.003 12.4509C133.715 12.6775 133.382 12.8456 133.053 13.0137C132.527 13.2804 131.884 13.295 131.332 13.4887C130.821 13.6678 130.554 13.9272 130.086 14.183C129.516 14.4936 129.129 14.479 128.478 14.4753C126.816 14.4607 125.424 14.6872 123.816 15.1074C122.102 15.5569 120.33 16.401 118.532 15.8748C117.681 15.6264 117.454 15.4765 117.14 14.7274C117.063 14.5447 116.931 13.5325 116.632 13.3242C115.959 12.8602 114.238 13.9089 113.5 14.1757C112.642 14.4826 111.666 15.0125 110.913 14.5228C110.862 14.4899 110.489 13.3973 110.197 13.6714C109.59 14.2414 109.061 12.0563 108.132 11.9795C107.928 11.9613 107.705 12.0672 107.497 12.0563C106.81 12.0161 106.36 11.6105 105.666 11.7968C104.862 12.0124 104.069 12.7396 103.185 12.6738C102.695 12.6373 102.732 12.6519 102.439 12.323C101.771 11.5739 101.497 10.865 100.316 10.7591C99.0446 10.6458 97.7803 10.8175 96.4904 10.5289C96.0409 10.4265 95.8546 10.4777 95.5074 10.1671C95.1932 9.88939 95.0836 9.22435 94.7072 9.03069C94.455 8.90279 94.3016 9.06356 94.0714 9.00509C93.779 8.93201 93.8046 8.61777 93.5233 8.7274C93.2857 8.81875 93.1103 9.00509 92.8765 9.10741C92.5038 9.26819 92.1274 9.35956 91.7108 9.38879C89.8289 9.53495 87.9544 9.60803 86.0762 9.60803C83.7997 9.60803 81.472 10.0319 79.4696 8.73105C78.9982 8.4241 78.7789 8.19754 78.4683 7.77367C78.3331 7.59096 78.1431 7.14515 77.9604 7.02822C77.2917 6.60434 76.7728 7.13784 76.2686 7.63846C76.126 7.78097 76.0091 7.96368 75.8154 8.02945C75.6474 8.08792 75.4464 8.04773 75.2856 8.12446C75.0919 8.21947 75.0335 8.59948 74.8763 8.76392C74.1163 9.56051 72.5596 9.7469 71.5109 9.68478C69.1577 9.54592 67.1808 7.79194 64.9518 7.21459C64.5937 7.12324 64.2685 7.15612 63.9359 6.96246C63.7167 6.83456 63.5596 6.45453 63.3659 6.35587C62.8141 6.08181 61.8056 6.75418 61.2027 6.84553C60.4536 6.95881 59.3793 7.01725 58.6375 6.88936C57.5924 6.71396 57.1539 6.16221 56.0138 6.24625C55.3415 6.29376 54.7532 6.42896 54.1977 6.84553C53.8689 7.09401 53.6642 7.41921 53.2952 7.6348C52.4511 8.12811 51.3695 8.08793 50.434 8.11351C48.4279 8.16832 45.2013 8.24504 43.9772 6.31932C43.4766 5.53369 43.1879 5.30715 42.2561 5.33638C41.7592 5.35099 40.8493 5.54465 40.5423 5.05135C40.3048 4.67132 40.7725 3.87108 40.4875 3.55318C39.4022 2.34732 38.0758 3.95147 36.8371 4.73345C35.6056 5.50812 34.4327 6.37048 33.1939 7.13419C32.5654 7.52152 30.8516 8.91008 29.9162 8.35831C29.5325 8.13176 28.9734 6.77243 28.8601 6.53126C28.4034 5.55926 28.513 3.988 27.5593 3.47643C26.9271 3.1366 26.2255 3.217 25.5239 3.18777C24.4533 3.14027 23.284 3.42894 22.2535 3.69569C21.4496 3.90032 20.5105 4.49958 19.8564 3.82722C19.6262 3.58971 19.7614 3.217 19.3412 3.20238C19.0342 3.19507 18.5994 3.77608 18.3582 3.95878C17.0683 4.94174 15.0732 4.79557 13.5092 4.77365C12.2705 4.75538 11.0171 4.67497 9.78936 4.49957C8.64562 4.33514 7.41053 3.94781 6.24487 4.12321C4.0926 4.44477 2.10477 7.2767 0 7.79558V31.8396C0.434839 31.8433 0.869678 31.8469 1.29721 31.8396C2.73327 31.8213 4.1803 31.8798 5.61636 31.8396C6.99762 31.7994 8.36425 31.5327 9.75281 31.5034C11.5616 31.4669 13.374 31.5181 15.1828 31.5181C16.9843 31.5181 18.7858 31.5071 20.5872 31.5181C21.1098 31.5217 21.6616 31.5802 22.1768 31.4742C23.0465 31.2915 23.8796 30.6959 24.7639 30.5972C25.4801 30.5168 25.5605 30.5022 26.094 31.0869C26.6786 31.7336 27.15 32.5814 27.6214 33.3122C28.0051 33.9078 28.1695 34.2258 28.8126 34.4267C29.5764 34.6679 30.3656 34.434 31.1184 34.6971C32.0356 35.015 32.6933 35.2014 33.6945 35.1868C34.9698 35.1649 36.4168 34.9895 37.6848 35.1868C38.2768 35.2818 38.6605 35.6399 39.2049 35.7788C39.9796 35.9834 40.2646 35.4864 40.82 35.1612C41.9674 34.4962 43.7762 34.646 45.0223 34.5839C46.2135 34.5254 47.4084 34.5583 48.5996 34.5619C50.2951 34.5656 51.9907 34.5729 53.6825 34.5948C55.769 34.6204 57.3805 34.2038 58.9554 32.8262C59.9383 31.9639 61.2721 31.836 62.4633 31.3573C63.534 30.9261 64.7362 30.8457 65.7776 30.3999C66.3513 30.1551 66.5705 30.0637 67.1844 30.0089C69.1175 29.8335 71.0286 28.9127 72.8556 28.3426C74.9458 27.6922 77.4561 27.5789 79.5244 28.3719C81.2381 29.0296 82.7327 29.311 84.5634 29.4827C86.3758 29.6545 88.1517 30.1478 89.7741 30.9663C90.6767 31.4231 91.2504 31.7775 92.2589 31.8725C94.1627 32.0552 96.0446 32.0625 97.9484 32.1247C102.377 32.2672 106.532 34.4304 110.917 34.9968C111.827 35.1137 112.715 35.0808 113.628 35.1356C115.072 35.2197 116.318 35.5303 117.692 35.9395C119.676 36.5278 121.755 36.6704 123.823 36.7069C125.157 36.7288 126.549 36.7873 127.879 36.7032C129.571 36.5936 130.503 35.8591 131.314 34.3719C131.796 33.4876 132.268 32.5777 132.746 31.6898C133.123 30.9882 133.411 30.2793 133.638 29.5193C133.74 29.1758 133.802 27.6447 134.208 27.6995C137.793 28.1855 141.136 31.1453 144.323 31.6277C147.297 32.0771 150.293 32.3841 153.297 32.406C153.995 32.4097 154.697 32.3622 155.384 32.4791C156.381 32.6435 156.82 33.7069 157.854 33.9261C158.866 34.1417 160.112 34.0102 161.146 33.9846C162.03 33.9627 162.856 33.7288 163.711 33.5059C165.158 33.1259 166.678 33.1624 168.169 33.0272C169.602 32.8993 171.038 32.5558 172.463 32.7422C173.048 32.8189 173.504 32.7787 173.903 32.406C174.63 31.719 174.984 31.0065 176.091 30.8786C177.02 30.7726 177.86 31.2001 178.668 31.5875C180.623 32.5266 182.413 33.9261 184.478 34.6204C186.056 35.1539 186.809 36.0638 188.051 37.2002C188.95 38.0224 189.97 38.7349 191.278 38.5266C192.517 38.3293 193.624 37.0833 194.738 36.5461C195.341 36.2538 196.109 35.702 196.73 35.523C197.304 35.3585 197.914 35.4389 198.491 35.4864C198.718 35.5047 198.926 35.6034 199.065 35.4389C199.62 34.7775 200.008 34.0431 200.779 33.5863C202.054 32.8299 203.402 32.2416 204.736 31.5948C205.178 31.3792 205.164 30.6118 205.635 30.5753C207.053 30.4657 206.53 33.3597 207.634 34.3463C207.919 34.6021 208.299 34.8799 208.609 35.1101C209.808 35.9907 211.489 35.7386 212.929 35.998C214.471 36.2757 216.024 36.5534 217.573 36.6703C218.084 36.7105 218.603 36.769 219.119 36.7361C220.145 36.6704 220.723 35.9505 221.201 35.037C221.684 34.1161 222.239 32.6325 223.237 32.3658C225.429 31.7775 226.229 36.2684 228.579 36.8275C229.295 36.9992 230.019 36.97 230.761 37.0358C231.254 37.0796 231.729 37.1673 232.109 36.8933C232.478 36.6265 232.164 36.0163 232.584 35.7349C232.913 35.512 234.046 35.8993 234.491 35.7459C235.113 35.5339 235.379 34.847 236.107 34.8177C237.185 34.7739 238.273 34.8433 239.34 35.0187C239.779 35.0918 240.221 35.1905 240.627 35.3658C241.873 35.9067 240.828 38.5705 242.055 38.9505C242.816 39.188 243.433 37.9054 243.923 37.361C245.026 36.1332 244.858 35.9834 246.386 36.7909C248.541 37.931 250.833 39.5644 253.361 39.7654C254.257 39.8385 255.163 39.7106 256.058 39.7325C256.708 39.7508 256.855 39.8969 257.341 39.4657C257.567 39.2648 257.721 38.9907 257.954 38.797C258.316 38.4937 258.777 38.4974 259.233 38.4682C261.689 38.3111 263.944 36.7581 266.421 36.4292C267.729 36.2538 269.242 36.2282 270.024 37.3902C271.493 39.5754 272.739 41.5778 275.103 42.8604C275.735 43.2039 276.707 43.9311 277.493 43.6497C278.414 43.3172 278.823 42.1186 279.572 41.5742C281.001 40.5364 281.852 43.5437 282.872 42.4621C283.237 42.0711 283.186 42.0419 283.595 41.8044C284.955 41.0151 286.161 40.2952 287.312 39.199C289.373 37.2367 291.861 34.8141 294.967 36.0419C295.877 36.4036 296.407 37.2989 297.382 37.5474C298.603 37.8543 300.393 37.7483 301.559 37.3902C302.374 37.1381 302.849 37.1454 303.13 36.3195C303.492 35.2562 303.401 33.8859 304.548 33.3488C305.37 32.9651 306.835 33.0857 307.8 32.9943C308.597 32.9176 309.397 32.8956 310.194 32.9212C311.359 32.9578 312.521 33.1515 313.691 33.0784C315.207 32.9834 316.61 32.4243 317.97 31.7775C318.916 31.3281 319.691 30.8676 320.761 31.1271C321.653 31.3463 322.398 32.004 323.261 32.3073C324.7 32.8153 326.162 33.2428 327.635 33.6448C328.384 33.8494 329.14 33.7105 329.9 33.7982C330.536 33.8713 330.434 34.1856 331.179 34.2696C332.919 34.4669 334.808 34.2513 336.558 34.2586C339.032 34.2696 341.37 31.8944 343.417 33.1661C343.775 33.389 343.187 34.3646 343.552 34.6496C344.721 35.5668 344.951 36.7105 345.562 37.6789C346.176 38.6509 345.956 38.5157 346.939 38.1101C347.568 37.8543 348.295 37.1746 348.971 37.0723C349.972 36.9188 349.775 37.9456 350.699 38.0516C353.495 38.3658 356.378 32.026 358.581 34.2696C359.17 34.8689 357.898 37.2221 358.117 38.1283C358.336 39.0455 359.805 36.3415 360.679 36.6557C361.742 37.0394 360.671 37.6496 361.823 38.037C363.24 38.5157 363.978 38.4645 365.378 37.8397C366.719 37.2367 367.709 36.6192 369.145 36.5534C370.139 36.5059 371.352 35.5193 372.109 36.0894C372.763 36.5827 371.864 37.4377 372.463 38.0479C373.161 38.7605 375.087 38.4243 376.008 38.4024C378.262 38.3512 380.791 38.0151 383.035 38.3951C384.716 38.6838 385.271 39.2465 386.407 40.3683C386.871 40.8251 386.553 40.8507 387.167 41.1028C387.705 41.3257 388.688 41.1722 389.298 41.154C390.438 41.1211 391.545 40.942 392.63 40.5802C393.401 40.3208 395.042 38.5522 395.484 39.3342C396.325 40.8178 397.79 39.1515 398.002 39.0382C399.361 38.3147 400.826 36.6082 402.467 36.473C403.622 36.3744 404.85 36.6594 406.015 36.579C408.003 36.4401 409.816 34.9858 411.65 34.2696C412.742 33.8421 413.766 33.5497 414.639 32.8043C415.911 31.719 416.324 28.2805 417.939 28.7921C419.042 29.1429 417.204 31.3683 417.928 32.2708C418.713 33.2501 420.672 32.4645 421.914 32.4426C424.827 32.3841 427.322 31.5985 429.88 30.2537C430.699 29.8226 431.495 29.395 432.387 29.1319C432.972 28.9602 433.571 28.8579 434.174 28.7775C436.169 28.5071 438.011 27.1039 439.991 27.8676C440.744 28.1563 441.372 28.624 442.067 29.0187C443.086 29.5997 444.186 29.9577 445.304 30.2793C445.904 30.4511 446.463 30.557 447.014 30.8749C447.716 31.2769 448.297 32.2525 449.05 32.4499C450.003 32.6983 450.212 32.5303 451.282 33.0491C452.2 33.4913 453.025 32.6618 454.041 32.7824C455.645 32.9688 457.158 33.6192 458.784 33.6996C459.453 33.7325 460.144 33.674 460.812 33.663C460.885 33.663 461.898 33.5534 462.047 33.6375C462.358 33.8165 462.446 34.2111 462.815 34.4048C463.429 34.73 464.36 34.624 465.04 34.7446C466.286 34.9639 467.547 35.4024 468.815 35.4755C469.374 35.5084 469.498 35.523 469.98 35.6947C471.61 36.2721 473.006 36.4328 474.753 36.4219C475.575 36.4182 476.105 36.3524 476.865 36.0967C478.019 35.7093 479.222 35.8774 480.409 35.7166C481.312 35.596 482.269 35.5997 483.161 35.4499C484.462 35.227 485.536 34.4596 486.782 34.1198C488.704 33.5972 490.853 33.7982 492.819 33.5022C493.717 33.367 494.299 33.2501 495.165 33.568C496.487 34.054 497.69 34.7739 499.049 35.2087C500.072 35.5376 501.113 35.6106 502.18 35.713C503.547 35.8445 504.932 36.082 506.306 36.104C507.881 36.1295 509.346 36.5059 510.888 36.6777C512.405 36.8494 514.261 36.7727 515.81 36.7361C517.52 36.6923 519.146 36.1697 520.838 36.0638C522.34 35.9724 523.893 36.0967 525.399 36.0967C528.79 36.0967 532.228 35.7897 535.517 36.6265C537.918 37.2367 539.156 39.8969 541.674 40.4012C542.536 40.5729 543.486 40.4012 544.29 40.1089C546.223 39.4036 548.105 38.7788 550.104 38.2599C551.343 37.9383 552.333 37.1527 553.535 36.8165C554.5 36.5461 555.315 36.6594 556.243 36.2245C558.987 34.931 562.312 35.4901 565.298 35.4901C566.036 35.4901 566.657 34.7885 567.121 34.2002C567.355 33.9042 567.498 33.6667 567.826 33.4693C568.108 33.3013 568.148 33.1953 568.353 32.9541C568.554 32.7203 568.941 32.6253 569.211 32.4974C569.613 32.3073 570.077 32.3256 570.512 32.3256C570.984 32.3293 571.437 32.3 571.893 32.4426C572.482 32.6253 573.092 32.5412 573.702 32.6143C574.115 32.6654 574.74 32.5412 575.073 32.8007C575.325 32.998 575.548 33.3013 575.781 33.5278C576.246 33.9809 576.746 34.4742 577.382 34.657C577.788 34.7739 578.201 34.73 578.617 34.7264C579.699 34.7154 580.773 34.8396 581.858 34.8433C582.041 34.8433 582.279 34.8031 582.45 34.8579C582.574 34.8981 582.648 35.0041 582.739 35.0918C583.031 35.3731 583.071 35.2233 583.43 35.4828Z" fill="white"/>
</svg>
