<svg width="10" height="45" viewBox="0 0 10 45" fill="none" xmlns="http://www.w3.org/2000/svg">
<path d="M5.09389 16.9793C4.59325 11.849 4.23566 6.86474 5.27269 1.78922C5.64817 -0.036505 2.93042 -0.748538 2.44766 1.02242C1.17818 5.62325 0.927865 10.1876 0.999385 14.9527C1.08878 19.7726 0.659666 25.6697 2.69798 30.0515C3.23438 31.2017 4.73629 30.654 5.12965 29.7411C6.79249 25.8158 5.50513 21.1419 5.09389 16.9793Z" fill="#A10000"/>
<path d="M6.38116 38.3037C4.84349 38.2854 3.43097 39.4904 3.39521 41.1153C3.35945 42.7219 4.73621 43.9999 6.27388 44.0182C7.81156 44.0365 9.22408 42.8315 9.25984 41.2066C9.2956 39.5999 7.91884 38.3219 6.38116 38.3037Z" fill="#A10000"/>
</svg>
