<svg width="43" height="82" viewBox="0 0 43 82" fill="none" xmlns="http://www.w3.org/2000/svg">
<path d="M35.3005 11.4139C35.0301 11.4227 34.7596 11.4799 34.489 11.537C35.2644 10.5737 35.139 8.92691 33.5512 8.69526C24.4494 7.32593 15.4168 5.38707 6.23105 4.64032C6.33064 3.6267 6.43993 2.5938 6.58779 1.58033C6.7948 0.161468 4.64259 -0.221539 4.39222 1.1634C4.19101 2.25879 4.02836 3.37361 3.87542 4.46915C3.86092 4.47393 3.82714 4.469 3.80786 4.45929C2.85688 4.40335 2.03308 5.41481 2.06906 6.30329C2.46191 15.4345 0.662975 24.5013 0.544021 33.6406C0.52449 35.3352 2.88505 35.4726 3.57444 34.2C3.95054 34.3653 4.40436 34.3763 4.86889 34.0301C7.45776 32.0824 10.0898 30.2169 12.7458 28.4239C15.1814 37.4115 19.2113 46.066 22.9279 54.5504C25.0283 59.3559 27.177 64.1615 29.2774 68.9669C30.9894 72.8877 32.1147 77.6129 34.7069 81.0342C35.4764 82.0504 37.1871 81.534 37.1717 80.2207C37.07 72.2153 30.5562 62.7086 27.2556 55.5821C22.8565 46.1009 18.8679 36.5486 15.3388 26.7321C17.6172 25.2567 19.91 23.8247 22.2365 22.446C25.6351 33.9133 29.2901 45.2317 33.7569 56.3305C34.9311 59.255 36.8015 65.1171 39.7997 66.7483C40.2528 67.0007 40.847 66.9011 41.2775 66.6465C42.4529 65.921 42.2729 64.7424 42.1414 63.5156C42.0425 62.6801 41.1695 62.3733 40.5555 62.6563C40.0033 61.6166 39.4899 60.5481 38.9765 59.4795C37.4939 56.3513 35.8854 53.3289 34.5576 50.1335C30.6216 40.7407 27.3045 31.0793 23.7987 21.5284C27.5228 19.3669 31.3238 17.3407 35.2258 15.4259C35.6608 15.2823 36.0766 15.0808 36.425 14.8211C36.425 14.8211 36.425 14.8211 36.4395 14.8163C36.5653 14.7105 36.7153 14.6288 36.8315 14.494C37.9072 13.2226 37.0244 11.3273 35.315 11.4091L35.3005 11.4139ZM13.7505 23.4298C12.9308 23.0411 11.7411 23.7231 11.8874 24.8485C9.30811 26.8252 6.79131 28.8938 4.30829 30.9674C5.65374 23.4008 5.45448 15.7331 5.94073 8.09642C14.832 8.82781 23.5892 10.8093 32.4061 12.1923C29.9891 13.199 27.5504 14.9685 25.5581 15.9958C21.4334 18.1127 17.5198 20.6745 13.76 23.4588L13.7505 23.4298Z" fill="#A10000"/>
</svg>
