<svg width="63" height="45" viewBox="0 0 63 45" fill="none" xmlns="http://www.w3.org/2000/svg">
<path d="M3 13.5144C3.37598 9.94262 7.33332 6.92348 10.2799 5.33283C11.8528 4.48378 15.2432 2.29422 17.0589 3.72991C18.7498 5.0669 19.2479 8.05887 19.2296 10.0414C19.1924 14.0497 17.2081 17.6882 14.7213 20.7275C12.1358 23.8877 8.66508 26.7334 6.47299 30.1781C6.10311 30.7593 6.48824 31.2943 7.05739 31.5472C8.11889 32.019 8.48991 32.609 9.01095 33.6511" stroke="#A10000" stroke-width="5" stroke-linecap="round"/>
<path d="M14.5551 40.158C14.5332 39.9821 14.4059 40.0093 14.2578 40.0093" stroke="#A10000" stroke-width="5" stroke-linecap="round"/>
<path d="M43.5723 12.298C44.022 10.0491 53.6348 10.9279 55.2702 10.9787C59.8722 11.1214 60.597 16.6548 59.1255 19.994C57.578 23.5056 54.5116 26.0837 53.3498 29.8595C53.0378 30.8735 52.5131 33.2209 53.8629 33.6708" stroke="#A10000" stroke-width="5" stroke-linecap="round"/>
<path d="M56.7662 41.5864C56.0386 41.6774 56.9301 42.1142 57.2793 42.1142C57.7239 42.1142 58.1686 42.1142 58.6132 42.1142" stroke="#A10000" stroke-width="5" stroke-linecap="round"/>
</svg>
