<svg width="25" height="20" viewBox="0 0 25 20" fill="none" xmlns="http://www.w3.org/2000/svg">
<path fill-rule="evenodd" clip-rule="evenodd" d="M14.6186 3.02765C12.4571 3.92667 8.13728 5.78741 1.65904 8.60987C0.607079 9.0282 0.0560126 9.43745 0.00584657 9.83761C-0.0789352 10.5139 0.767964 10.7802 1.92122 11.1428C2.0781 11.1922 2.24064 11.2433 2.40728 11.2974C3.54191 11.6663 5.06818 12.0977 5.86163 12.1149C6.58137 12.1304 7.38467 11.8337 8.27155 11.2247C14.3244 7.1389 17.4489 5.07373 17.645 5.02921C17.7834 4.9978 17.9752 4.95831 18.1051 5.0738C18.2351 5.18929 18.2223 5.40801 18.2085 5.46668C18.1246 5.82434 14.8002 8.915 13.0799 10.5144C12.5435 11.013 12.1631 11.3667 12.0853 11.4475C11.9111 11.6284 11.7336 11.7996 11.5629 11.9641C10.5088 12.9803 9.71835 13.7423 11.6067 14.9867C12.5141 15.5847 13.2403 16.0792 13.9647 16.5725C14.7559 17.1113 15.545 17.6487 16.566 18.3179C16.8261 18.4884 17.0745 18.6655 17.3165 18.838C18.2372 19.4944 19.0644 20.0841 20.0863 19.9901C20.6801 19.9354 21.2935 19.3771 21.605 17.7118C22.3412 13.7762 23.7882 5.249 24.1226 1.73514C24.1519 1.42728 24.1151 1.03328 24.0855 0.860326C24.0559 0.687369 23.994 0.440943 23.7692 0.25852C23.503 0.0424776 23.0919 -0.00308112 22.9081 0.000156966C22.0723 0.0148807 20.7899 0.460775 14.6186 3.02765Z" fill="white"/>
</svg>
